<?xml version="1.0" encoding="UTF-8"?>
<svg width="512" height="512" fill="none" version="1.1" viewBox="0 0 512 512" xmlns="http://www.w3.org/2000/svg">
<rect width="512" height="512" rx="50" fill="#3178c6"/>
<path d="m317 407v-50c8.1 11.4 19 20.1 32.6 26.1 13.6 5.9 28.1 8.9 43.5 8.9 15 0 28.7-2.1 41.1-6.2s23.1-10.2 31.8-18.2c8.8-8 15.6-17.9 20.4-29.7s7.2-25.2 7.2-40.5c0-11.9-1.5-22.4-4.4-31.5-2.9-9.2-7.2-17.4-12.8-24.7-5.6-7.3-12.4-13.8-20.4-19.5-8-5.7-17.1-11-27.2-15.8l-36.8-17.6c-7.1-3.3-13.3-6.7-18.4-10.1-5.2-3.4-9.4-7-12.8-10.7-3.4-3.7-5.9-7.7-7.6-12-1.6-4.3-2.4-9.1-2.4-14.5 0-5.3 1.1-10.1 3.2-14.5s5.1-8.1 9-11.3c3.9-3.1 8.6-5.6 14-7.4 5.4-1.8 11.4-2.7 18-2.7 4.8 0 9.6.5 14.4 1.6s9.3 2.7 13.6 4.9c4.3 2.2 8.2 5 11.8 8.4 3.6 3.4 6.5 7.4 8.8 12l38.4-24c-4.1-7.9-9.4-14.7-15.8-20.4-6.4-5.7-13.7-10.3-21.8-13.8-8.1-3.5-16.9-6.1-26.4-7.8s-19.3-2.5-29.4-2.5c-14.7 0-28.3 2.1-40.8 6.2-12.5 4.1-23.3 10.1-32.4 17.8-9.1 7.7-16.2 17.2-21.2 28.3-5 11.1-7.6 23.8-7.6 38 0 18.5 4.1 34.1 12.4 46.8s21.2 23.3 38.8 32l36.4 17.2c8.5 4 15.9 8 22.2 11.9 6.3 3.9 11.5 8 15.6 12.4s7.1 9.1 9.2 14.1 3.2 10.7 3.2 17.1c0 5.3-1.1 10.2-3.2 14.6-2.1 4.4-5.2 8.2-9.2 11.4s-8.8 5.7-14.4 7.4c-5.6 1.8-12 2.7-19.2 2.7-12.2 0-23.4-2.8-33.6-8.4s-18.9-14.1-26.4-25.5l-39.2 24c4.8 9.3 10.7 17.4 17.6 24.3s14.9 12.7 23.8 17.4c8.9 4.7 18.7 8.2 29.4 10.5s21.8 3.5 33.4 3.5c15.8 0 30.4-2.2 43.8-6.5 13.4-4.3 24.9-10.7 34.6-19 9.7-8.4 17.2-18.7 22.6-31 5.4-12.3 8.2-26.3 8.2-42 0-12.4-1.6-23.5-4.8-33.1-3.2-9.6-7.8-18.3-13.8-26s-13.3-14.5-21.8-20.4c-8.5-5.9-18.1-11.4-28.8-16.4l-35.6-16.8c-7.4-3.5-13.7-7-18.8-10.5s-9.3-7.1-12.4-10.9c-3.1-3.7-5.3-7.7-6.6-11.8-1.3-4.1-2-8.6-2-13.4 0-5.1.9-9.7 2.8-13.8 1.9-4.1 4.5-7.6 7.8-10.5s7.4-5.2 12.2-6.8c4.8-1.6 10.1-2.4 16-2.4 11.7 0 21.7 2.7 30 8s15.2 13.1 20.4 23.3l37.2-24c-7.9-15.5-18.6-27.2-32-35.1-13.4-7.9-29.9-11.8-49.6-11.8-14.2 0-27.3 2.2-39.4 6.7s-22.5 10.8-31.2 19.1-15.4 18.3-20.2 30.1c-4.8 11.8-7.2 24.9-7.2 39.3 0 11.9 1.5 22.4 4.4 31.5s7.2 17.2 12.8 24.3c5.6 7.1 12.4 13.4 20.4 19s17.1 10.7 27.2 15.4l36.8 17.6c7.1 3.3 13.2 6.7 18.4 10.1 5.2 3.4 9.4 7 12.8 10.7 3.4 3.7 5.9 7.7 7.6 12 1.6 4.3 2.4 9.1 2.4 14.5 0 5.3-1.1 10.1-3.2 14.5s-5.1 8.1-9 11.3c-3.9 3.1-8.6 5.6-14 7.4-5.4 1.8-11.4 2.7-18 2.7-4.8 0-9.6-.5-14.4-1.6s-9.3-2.7-13.6-4.9c-4.3-2.2-8.2-5-11.8-8.4-3.6-3.4-6.5-7.4-8.8-12l-38.4 24c4.1 7.9 9.4 14.7 15.8 20.4 6.4 5.7 13.7 10.3 21.8 13.8 8.1 3.5 16.9 6.1 26.4 7.8s19.3 2.5 29.4 2.5c14.7 0 28.3-2.1 40.8-6.2 12.5-4.1 23.3-10.1 32.4-17.8 9.1-7.7 16.2-17.2 21.2-28.3 5-11.1 7.6-23.8 7.6-38 0-18.5-4.1-34.1-12.4-46.8s-21.2-23.3-38.8-32l-36.4-17.2c-8.5-4-15.9-8-22.2-11.9-6.3-3.9-11.5-8-15.6-12.4s-7.1-9.1-9.2-14.1-3.2-10.7-3.2-17.1c0-5.3 1.1-10.2 3.2-14.6 2.1-4.4 5.2-8.2 9.2-11.4s8.8-5.7 14.4-7.4c5.6-1.8 12-2.7 19.2-2.7 12.2 0 23.4 2.8 33.6 8.4s18.9 14.1 26.4 25.5l39.2-24c-4.8-9.3-10.7-17.4-17.6-24.3s-14.9-12.7-23.8-17.4c-8.9-4.7-18.7-8.2-29.4-10.5s-21.8-3.5-33.4-3.5c-15.8 0-30.4 2.2-43.8 6.5-13.4 4.3-24.9 10.7-34.6 19-9.7 8.4-17.2 18.7-22.6 31-5.4 12.3-8.2 26.3-8.2 42 0 12.4 1.6 23.5 4.8 33.1 3.2 9.6 7.8 18.3 13.8 26s13.3 14.5 21.8 20.4c8.5 5.9 18.1 11.4 28.8 16.4l35.6 16.8c7.4 3.5 13.7 7 18.8 10.5s9.3 7.1 12.4 10.9c3.1 3.7 5.3 7.7 6.6 11.8 1.3 4.1 2 8.6 2 13.4 0 5.1-.9 9.7-2.8 13.8-1.9 4.1-4.5 7.6-7.8 10.5s-7.4 5.2-12.2 6.8c-4.8 1.6-10.1 2.4-16 2.4-11.7 0-21.7-2.7-30-8s-15.2-13.1-20.4-23.3l-37.2 24c7.9 15.5 18.6 27.2 32 35.1 13.4 7.9 29.9 11.8 49.6 11.8 14.2 0 27.3-2.2 39.4-6.7s22.5-10.8 31.2-19.1 15.4-18.3 20.2-30.1c4.8-11.8 7.2-24.9 7.2-39.3zm-317-223h64v-38h-179v38h63v183h52z" clip-rule="evenodd" fill="#fff" fill-rule="evenodd"/>
</svg>
